<?xml version="1.0" encoding="UTF-8" standalone="no"?>
<!-- Generator: Adobe Illustrator 16.0.0, SVG Export Plug-In . SVG Version: 6.00 Build 0)  -->

<svg
   xmlns:dc="http://purl.org/dc/elements/1.1/"
   xmlns:cc="http://creativecommons.org/ns#"
   xmlns:rdf="http://www.w3.org/1999/02/22-rdf-syntax-ns#"
   xmlns:svg="http://www.w3.org/2000/svg"
   xmlns="http://www.w3.org/2000/svg"
   xmlns:sodipodi="http://sodipodi.sourceforge.net/DTD/sodipodi-0.dtd"
   xmlns:inkscape="http://www.inkscape.org/namespaces/inkscape"
   version="1.1"
   id="Capa_1"
   x="0px"
   y="0px"
   width="45.000004"
   height="36"
   viewBox="0 0 45.000004 36.000001"
   xml:space="preserve"
   inkscape:version="0.48.4 r9939"
   sodipodi:docname="mail.svg"
   inkscape:export-filename="/home/jordan/Projects/jordanlos.github.io/img/mail.png"
   inkscape:export-xdpi="90"
   inkscape:export-ydpi="90"><metadata
     id="metadata42"><rdf:RDF><cc:Work
         rdf:about=""><dc:format>image/svg+xml</dc:format><dc:type
           rdf:resource="http://purl.org/dc/dcmitype/StillImage" /><dc:title /></cc:Work></rdf:RDF></metadata><defs
     id="defs40" /><sodipodi:namedview
     pagecolor="#ffffff"
     bordercolor="#666666"
     borderopacity="1"
     objecttolerance="10"
     gridtolerance="10"
     guidetolerance="10"
     inkscape:pageopacity="0"
     inkscape:pageshadow="2"
     inkscape:window-width="1366"
     inkscape:window-height="720"
     id="namedview38"
     showgrid="false"
     fit-margin-top="0"
     fit-margin-left="0"
     fit-margin-right="0"
     fit-margin-bottom="0"
     inkscape:zoom="2.6176816"
     inkscape:cx="131.00064"
     inkscape:cy="72.773385"
     inkscape:window-x="0"
     inkscape:window-y="0"
     inkscape:window-maximized="1"
     inkscape:current-layer="Capa_1" /><g
     id="g3"
     style="fill:#ffffff;fill-opacity:1"
     transform="matrix(0.0882353,0,0,0.0882353,-6.25e-7,-4.5000003)"><g
       id="email"
       style="fill:#ffffff;fill-opacity:1"><path
         d="M 459,51 H 51 C 22.95,51 0,73.95 0,102 v 306 c 0,28.05 22.95,51 51,51 h 408 c 28.05,0 51,-22.95 51,-51 V 102 C 510,73.95 487.05,51 459,51 z M 459,153 255,280.5 51,153 V 102 L 255,229.5 459,102 v 51 z"
         id="path6"
         style="fill:#ffffff;fill-opacity:1"
         inkscape:connector-curvature="0" /></g></g><g
     id="g8"
     transform="translate(-6.25e-7,-423)" /><g
     id="g10"
     transform="translate(-6.25e-7,-423)" /><g
     id="g12"
     transform="translate(-6.25e-7,-423)" /><g
     id="g14"
     transform="translate(-6.25e-7,-423)" /><g
     id="g16"
     transform="translate(-6.25e-7,-423)" /><g
     id="g18"
     transform="translate(-6.25e-7,-423)" /><g
     id="g20"
     transform="translate(-6.25e-7,-423)" /><g
     id="g22"
     transform="translate(-6.25e-7,-423)" /><g
     id="g24"
     transform="translate(-6.25e-7,-423)" /><g
     id="g26"
     transform="translate(-6.25e-7,-423)" /><g
     id="g28"
     transform="translate(-6.25e-7,-423)" /><g
     id="g30"
     transform="translate(-6.25e-7,-423)" /><g
     id="g32"
     transform="translate(-6.25e-7,-423)" /><g
     id="g34"
     transform="translate(-6.25e-7,-423)" /><g
     id="g36"
     transform="translate(-6.25e-7,-423)" /></svg>